<svg xmlns="http://www.w3.org/2000/svg" width="1200" height="630" viewBox="0 0 1200 630">
  <defs>
    <linearGradient id="bg2" x1="0%" y1="0%" x2="100%" y2="100%">
      <stop offset="0%" style="stop-color:#11998e"/>
      <stop offset="100%" style="stop-color:#38ef7d"/>
    </linearGradient>
  </defs>
  <rect width="1200" height="630" fill="url(#bg2)"/>
  <!-- Checklist icons -->
  <g transform="translate(150, 120)">
    <rect width="300" height="80" rx="12" fill="white" opacity="0.2"/>
    <circle cx="50" cy="40" r="25" fill="white" opacity="0.9"/>
    <path d="M38 40 L46 48 L62 32" stroke="#11998e" stroke-width="4" fill="none" stroke-linecap="round"/>
    <rect x="90" y="28" width="180" height="12" rx="4" fill="white" opacity="0.6"/>
    <rect x="90" y="48" width="120" height="10" rx="4" fill="white" opacity="0.3"/>
  </g>
  <g transform="translate(150, 220)">
    <rect width="300" height="80" rx="12" fill="white" opacity="0.2"/>
    <circle cx="50" cy="40" r="25" fill="white" opacity="0.9"/>
    <path d="M38 40 L46 48 L62 32" stroke="#11998e" stroke-width="4" fill="none" stroke-linecap="round"/>
    <rect x="90" y="28" width="160" height="12" rx="4" fill="white" opacity="0.6"/>
    <rect x="90" y="48" width="140" height="10" rx="4" fill="white" opacity="0.3"/>
  </g>
  <g transform="translate(150, 320)">
    <rect width="300" height="80" rx="12" fill="white" opacity="0.2"/>
    <circle cx="50" cy="40" r="25" fill="white" opacity="0.9"/>
    <path d="M38 40 L46 48 L62 32" stroke="#11998e" stroke-width="4" fill="none" stroke-linecap="round"/>
    <rect x="90" y="28" width="190" height="12" rx="4" fill="white" opacity="0.6"/>
    <rect x="90" y="48" width="100" height="10" rx="4" fill="white" opacity="0.3"/>
  </g>
  <g transform="translate(150, 420)">
    <rect width="300" height="80" rx="12" fill="white" opacity="0.15"/>
    <circle cx="50" cy="40" r="25" fill="white" opacity="0.3"/>
    <rect x="90" y="28" width="170" height="12" rx="4" fill="white" opacity="0.3"/>
    <rect x="90" y="48" width="130" height="10" rx="4" fill="white" opacity="0.2"/>
  </g>
  <!-- Graph -->
  <g transform="translate(600, 150)">
    <rect width="450" height="350" rx="20" fill="white" opacity="0.1"/>
    <polyline points="50,280 120,220 200,250 280,150 360,100 400,80" stroke="white" stroke-width="4" fill="none" stroke-linecap="round" stroke-linejoin="round"/>
    <circle cx="400" cy="80" r="12" fill="white"/>
  </g>
  <text x="600" y="580" font-family="system-ui, sans-serif" font-size="24" fill="white" opacity="0.6" text-anchor="middle">5 taches a automatiser</text>
</svg>
