<svg xmlns="http://www.w3.org/2000/svg" width="1200" height="630" viewBox="0 0 1200 630">
  <defs>
    <linearGradient id="bg1" x1="0%" y1="0%" x2="100%" y2="100%">
      <stop offset="0%" style="stop-color:#667eea"/>
      <stop offset="100%" style="stop-color:#764ba2"/>
    </linearGradient>
  </defs>
  <rect width="1200" height="630" fill="url(#bg1)"/>
  <rect x="100" y="150" width="400" height="330" rx="20" fill="white" opacity="0.15"/>
  <rect x="130" y="200" width="340" height="20" rx="4" fill="white" opacity="0.4"/>
  <rect x="130" y="240" width="280" height="20" rx="4" fill="white" opacity="0.3"/>
  <rect x="130" y="300" width="340" height="15" rx="4" fill="white" opacity="0.2"/>
  <rect x="130" y="330" width="300" height="15" rx="4" fill="white" opacity="0.2"/>
  <rect x="130" y="360" width="320" height="15" rx="4" fill="white" opacity="0.2"/>
  <rect x="130" y="410" width="120" height="40" rx="8" fill="white" opacity="0.9"/>
  <rect x="700" y="100" width="400" height="430" rx="20" fill="white" opacity="0.1"/>
  <circle cx="900" cy="250" r="80" fill="white" opacity="0.2"/>
  <path d="M870 250 L890 270 L930 230" stroke="white" stroke-width="8" fill="none" stroke-linecap="round" stroke-linejoin="round"/>
  <rect x="750" y="380" width="300" height="20" rx="4" fill="white" opacity="0.3"/>
  <rect x="780" y="420" width="240" height="15" rx="4" fill="white" opacity="0.2"/>
  <rect x="800" y="455" width="200" height="15" rx="4" fill="white" opacity="0.2"/>
  <text x="600" y="580" font-family="system-ui, sans-serif" font-size="24" fill="white" opacity="0.6" text-anchor="middle">Automatisation Chorus Pro</text>
</svg>
