<svg xmlns="http://www.w3.org/2000/svg" width="1200" height="630" viewBox="0 0 1200 630">
  <defs>
    <linearGradient id="bg3" x1="0%" y1="0%" x2="100%" y2="100%">
      <stop offset="0%" style="stop-color:#f093fb"/>
      <stop offset="100%" style="stop-color:#f5576c"/>
    </linearGradient>
  </defs>
  <rect width="1200" height="630" fill="url(#bg3)"/>
  <!-- Sage box -->
  <g transform="translate(100, 180)">
    <rect width="280" height="270" rx="20" fill="white" opacity="0.2"/>
    <rect x="30" y="30" width="220" height="40" rx="8" fill="white" opacity="0.9"/>
    <text x="140" y="58" font-family="system-ui, sans-serif" font-size="20" font-weight="bold" fill="#f5576c" text-anchor="middle">SAGE</text>
    <rect x="30" y="90" width="220" height="15" rx="4" fill="white" opacity="0.4"/>
    <rect x="30" y="115" width="180" height="15" rx="4" fill="white" opacity="0.3"/>
    <rect x="30" y="150" width="220" height="15" rx="4" fill="white" opacity="0.4"/>
    <rect x="30" y="175" width="160" height="15" rx="4" fill="white" opacity="0.3"/>
    <rect x="30" y="210" width="200" height="15" rx="4" fill="white" opacity="0.4"/>
  </g>
  <!-- Arrows -->
  <g transform="translate(420, 280)">
    <path d="M0 35 L120 35" stroke="white" stroke-width="4" fill="none" stroke-dasharray="10,10"/>
    <path d="M120 35 L160 35" stroke="white" stroke-width="4" fill="none"/>
    <polygon points="160,25 180,35 160,45" fill="white"/>
    <path d="M180 35 L220 35" stroke="white" stroke-width="4" fill="none"/>
    <path d="M220 35 L340 35" stroke="white" stroke-width="4" fill="none" stroke-dasharray="10,10"/>
  </g>
  <!-- Sync icon -->
  <g transform="translate(530, 250)">
    <circle cx="40" cy="40" r="40" fill="white" opacity="0.9"/>
    <path d="M25 40 A20 20 0 0 1 55 40" stroke="#f5576c" stroke-width="4" fill="none" stroke-linecap="round"/>
    <path d="M55 40 A20 20 0 0 1 25 40" stroke="#f5576c" stroke-width="4" fill="none" stroke-linecap="round"/>
    <polygon points="52,32 60,40 52,48" fill="#f5576c"/>
    <polygon points="28,32 20,40 28,48" fill="#f5576c"/>
  </g>
  <!-- CRM box -->
  <g transform="translate(820, 180)">
    <rect width="280" height="270" rx="20" fill="white" opacity="0.2"/>
    <rect x="30" y="30" width="220" height="40" rx="8" fill="white" opacity="0.9"/>
    <text x="140" y="58" font-family="system-ui, sans-serif" font-size="20" font-weight="bold" fill="#f5576c" text-anchor="middle">CRM</text>
    <circle cx="60" cy="120" r="25" fill="white" opacity="0.5"/>
    <circle cx="140" cy="120" r="25" fill="white" opacity="0.5"/>
    <circle cx="220" cy="120" r="25" fill="white" opacity="0.5"/>
    <rect x="30" y="170" width="220" height="15" rx="4" fill="white" opacity="0.4"/>
    <rect x="30" y="195" width="180" height="15" rx="4" fill="white" opacity="0.3"/>
    <rect x="30" y="230" width="200" height="15" rx="4" fill="white" opacity="0.4"/>
  </g>
  <text x="600" y="580" font-family="system-ui, sans-serif" font-size="24" fill="white" opacity="0.6" text-anchor="middle">Integration Sage + CRM</text>
</svg>
